<svg xmlns="http://www.w3.org/2000/svg" xmlns:xlink="http://www.w3.org/1999/xlink" width="500" zoomAndPan="magnify" viewBox="0 0 375 374.999991" height="500" preserveAspectRatio="xMidYMid meet" version="1.0"><defs><g/><clipPath id="id1"><path d="M 191 135 L 289 135 L 289 216 L 191 216 Z M 191 135 " clip-rule="nonzero"/></clipPath><clipPath id="id2"><path d="M 145.019531 49.257812 L 317.378906 132.140625 L 229.945312 313.960938 L 57.589844 231.078125 Z M 145.019531 49.257812 " clip-rule="nonzero"/></clipPath><clipPath id="id3"><path d="M 145.019531 49.257812 L 317.378906 132.140625 L 229.945312 313.960938 L 57.589844 231.078125 Z M 145.019531 49.257812 " clip-rule="nonzero"/></clipPath><clipPath id="id4"><path d="M 174 95 L 232 95 L 232 202 L 174 202 Z M 174 95 " clip-rule="nonzero"/></clipPath><clipPath id="id5"><path d="M 145.019531 49.257812 L 317.378906 132.140625 L 229.945312 313.960938 L 57.589844 231.078125 Z M 145.019531 49.257812 " clip-rule="nonzero"/></clipPath><clipPath id="id6"><path d="M 145.019531 49.257812 L 317.378906 132.140625 L 229.945312 313.960938 L 57.589844 231.078125 Z M 145.019531 49.257812 " clip-rule="nonzero"/></clipPath><clipPath id="id7"><path d="M 190 199 L 255 199 L 255 293 L 190 293 Z M 190 199 " clip-rule="nonzero"/></clipPath><clipPath id="id8"><path d="M 145.019531 49.257812 L 317.378906 132.140625 L 229.945312 313.960938 L 57.589844 231.078125 Z M 145.019531 49.257812 " clip-rule="nonzero"/></clipPath><clipPath id="id9"><path d="M 145.019531 49.257812 L 317.378906 132.140625 L 229.945312 313.960938 L 57.589844 231.078125 Z M 145.019531 49.257812 " clip-rule="nonzero"/></clipPath><clipPath id="id10"><path d="M 92 153 L 194 153 L 194 202 L 92 202 Z M 92 153 " clip-rule="nonzero"/></clipPath><clipPath id="id11"><path d="M 145.019531 49.257812 L 317.378906 132.140625 L 229.945312 313.960938 L 57.589844 231.078125 Z M 145.019531 49.257812 " clip-rule="nonzero"/></clipPath><clipPath id="id12"><path d="M 145.019531 49.257812 L 317.378906 132.140625 L 229.945312 313.960938 L 57.589844 231.078125 Z M 145.019531 49.257812 " clip-rule="nonzero"/></clipPath><clipPath id="id13"><path d="M 120 199 L 193 199 L 193 262 L 120 262 Z M 120 199 " clip-rule="nonzero"/></clipPath><clipPath id="id14"><path d="M 145.019531 49.257812 L 317.378906 132.140625 L 229.945312 313.960938 L 57.589844 231.078125 Z M 145.019531 49.257812 " clip-rule="nonzero"/></clipPath><clipPath id="id15"><path d="M 145.019531 49.257812 L 317.378906 132.140625 L 229.945312 313.960938 L 57.589844 231.078125 Z M 145.019531 49.257812 " clip-rule="nonzero"/></clipPath><clipPath id="id16"><path d="M 188 105 L 267 105 L 267 203 L 188 203 Z M 188 105 " clip-rule="nonzero"/></clipPath><clipPath id="id17"><path d="M 145.019531 49.257812 L 317.378906 132.140625 L 229.945312 313.960938 L 57.589844 231.078125 Z M 145.019531 49.257812 " clip-rule="nonzero"/></clipPath><clipPath id="id18"><path d="M 145.019531 49.257812 L 317.378906 132.140625 L 229.945312 313.960938 L 57.589844 231.078125 Z M 145.019531 49.257812 " clip-rule="nonzero"/></clipPath></defs><g clip-path="url(#id1)"><g clip-path="url(#id2)"><g clip-path="url(#id3)"><path fill="#00c2cb" d="M 208.257812 211.484375 C 207.914062 211.320312 207.570312 211.152344 207.1875 210.96875 C 205.316406 209.976562 200.28125 206.941406 198.214844 205.667969 L 198.136719 205.628906 C 194.136719 203.1875 192.46875 202.152344 191.742188 201.613281 L 191.589844 201.539062 L 191.605469 201.503906 C 191.164062 201.148438 191.144531 200.996094 191.121094 200.75 L 191.09375 200.222656 L 191.5625 199.929688 C 191.84375 199.738281 192.167969 199.75 192.511719 199.914062 C 192.550781 199.933594 192.625 199.972656 192.664062 199.988281 C 194.382812 200.816406 200.542969 195.832031 203.164062 193.707031 C 204.34375 192.722656 205.261719 191.992188 205.917969 191.601562 C 219.070312 182.835938 235.46875 171.917969 242.988281 155.601562 C 243.554688 154.320312 244.121094 152.949219 244.667969 151.613281 C 246.789062 146.425781 248.980469 141.085938 253.707031 137.90625 C 260.214844 133.46875 268.847656 135.082031 276.40625 136.882812 L 277.546875 137.148438 C 279.734375 137.683594 281.960938 138.238281 284.167969 138.734375 C 284.722656 138.859375 285.558594 139.074219 286.324219 139.441406 C 287.429688 139.976562 288.199219 140.722656 288.5 141.664062 C 288.976562 143.023438 288.429688 144.355469 287.992188 145.460938 L 287.972656 145.5 C 286.164062 149.847656 284.335938 154.140625 282.527344 158.488281 C 280.753906 162.761719 278.925781 167.054688 277.152344 171.324219 L 276.988281 171.761719 C 274.6875 177.238281 272.292969 182.902344 268.710938 187.808594 C 263.140625 195.472656 255.058594 201.035156 247.871094 205.902344 C 242.957031 209.273438 236.824219 213.515625 229.902344 214.699219 C 222.832031 215.8125 214.90625 214.679688 208.257812 211.484375 Z M 195.058594 201.46875 C 198.425781 203.558594 205.835938 208.109375 208.089844 209.289062 C 208.433594 209.453125 208.742188 209.601562 209.085938 209.765625 C 215.425781 212.816406 222.933594 213.933594 229.648438 212.789062 C 236.191406 211.707031 242.117188 207.597656 246.898438 204.304688 C 253.914062 199.496094 261.886719 194.070312 267.25 186.636719 C 270.703125 181.902344 273.042969 176.351562 275.308594 170.953125 L 275.492188 170.476562 C 277.300781 166.226562 279.089844 161.914062 280.863281 157.640625 C 282.652344 153.332031 284.464844 148.984375 286.292969 144.691406 C 286.636719 143.777344 287 142.824219 286.761719 142.144531 C 286.605469 141.691406 286.179688 141.300781 285.53125 140.988281 C 284.921875 140.695312 284.253906 140.515625 283.742188 140.410156 C 281.535156 139.914062 279.304688 139.359375 277.117188 138.824219 L 275.976562 138.554688 C 268.78125 136.789062 260.625 135.265625 254.75 139.257812 C 250.492188 142.144531 248.429688 147.21875 246.402344 152.117188 C 245.855469 153.453125 245.269531 154.863281 244.683594 156.179688 C 236.929688 172.996094 220.304688 184.085938 206.945312 192.988281 C 206.398438 193.335938 205.464844 194.109375 204.320312 195.019531 C 200.917969 197.894531 197.601562 200.484375 195.058594 201.46875 Z M 195.058594 201.46875 " fill-opacity="1" fill-rule="nonzero"/></g></g></g><g clip-path="url(#id4)"><g clip-path="url(#id5)"><g clip-path="url(#id6)"><path fill="#cb6ce6" d="M 188.558594 200.601562 C 185.769531 199.261719 182.753906 196.824219 180.820312 194.292969 C 175.707031 187.605469 175.195312 179.085938 175.121094 169.457031 C 175.058594 160.78125 174.976562 151.949219 174.921875 143.460938 C 174.886719 137.660156 174.8125 131.84375 174.761719 126.082031 C 174.71875 120.890625 174.671875 115.507812 176.507812 110.515625 C 178.523438 104.855469 183.027344 100.675781 187.945312 99.84375 C 190.347656 99.449219 192.757812 99.808594 195.039062 100.152344 C 196.75 100.410156 198.328125 100.652344 199.9375 100.628906 C 203.351562 100.578125 206.554688 99.296875 209.90625 97.902344 C 211.1875 97.386719 212.527344 96.855469 213.828125 96.402344 C 218.671875 94.734375 223.167969 94.6875 226.453125 96.265625 C 227.332031 96.6875 228.117188 97.207031 228.828125 97.878906 C 233.175781 101.945312 232.570312 109.082031 229.691406 114.089844 C 227.992188 117.035156 225.679688 119.589844 223.425781 122.03125 C 222.027344 123.566406 220.574219 125.125 219.328125 126.734375 C 216 131.011719 213.824219 136.125 211.628906 141.085938 C 207.289062 150.984375 202.898438 161.003906 198.6875 170.730469 L 198.15625 171.933594 C 195.960938 176.988281 193.898438 181.964844 192.878906 187.210938 C 192.40625 189.664062 192.671875 191.953125 192.914062 194.1875 C 193.15625 196.324219 193.378906 198.5 193.039062 200.875 L 192.898438 201.75 L 192.007812 201.648438 C 191 201.585938 189.820312 201.207031 188.558594 200.601562 Z M 225.664062 98.003906 C 221.730469 96.109375 216.519531 97.554688 214.445312 98.25 C 213.160156 98.667969 211.863281 99.214844 210.636719 99.707031 C 207.246094 101.085938 203.761719 102.464844 199.988281 102.582031 C 198.226562 102.625 196.476562 102.347656 194.804688 102.109375 C 192.523438 101.765625 190.414062 101.457031 188.277344 101.789062 C 183.984375 102.5 180.082031 106.21875 178.265625 111.265625 C 176.574219 115.953125 176.617188 121.148438 176.660156 126.148438 C 176.691406 131.949219 176.765625 137.765625 176.800781 143.5625 C 176.894531 152.070312 176.957031 160.84375 177 169.5625 C 177.089844 178.867188 177.519531 187.066406 182.300781 193.265625 C 184.003906 195.496094 186.882812 197.820312 189.40625 199.035156 C 190.09375 199.363281 190.761719 199.640625 191.351562 199.78125 C 191.496094 198.015625 191.316406 196.332031 191.136719 194.554688 C 190.871094 192.171875 190.625 189.75 191.132812 187.03125 C 192.203125 181.574219 194.265625 176.503906 196.515625 171.332031 L 196.992188 170.246094 C 201.257812 160.496094 205.648438 150.386719 209.988281 140.484375 C 212.183594 135.429688 214.453125 130.21875 217.871094 125.753906 C 219.152344 124.066406 220.625 122.46875 222.042969 120.894531 C 224.222656 118.511719 226.480469 116.070312 228.046875 113.300781 C 230.519531 108.941406 231.140625 102.753906 227.488281 99.398438 C 227.023438 98.796875 226.351562 98.332031 225.664062 98.003906 Z M 225.664062 98.003906 " fill-opacity="1" fill-rule="nonzero"/></g></g></g><g clip-path="url(#id7)"><g clip-path="url(#id8)"><g clip-path="url(#id9)"><path fill="#c9e265" d="M 233.644531 292.421875 C 232.386719 291.816406 231.148438 290.375 230.324219 288.472656 C 228.257812 283.765625 226.8125 278.746094 225.449219 273.859375 C 223.5625 267.21875 221.597656 260.347656 217.996094 254.433594 C 215.972656 251.109375 213.402344 248.039062 210.871094 245.085938 C 209.519531 243.492188 208.148438 241.847656 206.871094 240.199219 C 202.59375 234.710938 199.105469 228.753906 196.523438 222.484375 L 196.503906 222.425781 C 193.15625 214.519531 189.613281 204.867188 191.4375 200.386719 L 191.839844 199.359375 L 192.777344 199.949219 C 197.832031 203.132812 203.347656 206.535156 208.726562 209.828125 L 208.839844 209.882812 C 214.945312 213.621094 221.265625 217.503906 227.027344 221.167969 C 236.816406 227.425781 244.878906 236.097656 250.269531 246.308594 C 253.53125 252.4375 254.632812 257.382812 253.738281 261.890625 C 253.140625 264.988281 251.59375 267.722656 250.078125 270.378906 L 239.101562 289.6875 C 238.527344 290.679688 237.660156 292.191406 236.113281 292.667969 C 235.265625 292.871094 234.449219 292.808594 233.644531 292.421875 Z M 192.886719 202.164062 C 192.152344 207.21875 196.71875 218.066406 198.238281 221.660156 L 198.257812 221.71875 C 200.761719 227.859375 204.171875 233.683594 208.332031 239.019531 C 209.609375 240.667969 210.996094 242.277344 212.3125 243.847656 C 214.863281 246.863281 217.507812 249.96875 219.609375 253.421875 C 223.382812 259.5625 225.332031 266.566406 227.261719 273.320312 C 228.625 278.113281 230.03125 283.113281 232.054688 287.707031 C 232.527344 288.78125 233.441406 290.207031 234.472656 290.703125 C 234.855469 290.886719 235.253906 290.9375 235.59375 290.820312 C 236.367188 290.582031 236.941406 289.679688 237.492188 288.726562 L 248.472656 269.417969 C 249.910156 266.914062 251.40625 264.292969 251.949219 261.5 C 252.738281 257.414062 251.679688 252.863281 248.652344 247.128906 C 243.359375 237.203125 235.566406 228.753906 226.027344 222.664062 C 220.265625 218.996094 213.90625 215.09375 207.800781 211.359375 C 202.804688 208.34375 197.65625 205.164062 192.886719 202.164062 Z M 192.886719 202.164062 " fill-opacity="1" fill-rule="nonzero"/></g></g></g><g clip-path="url(#id10)"><g clip-path="url(#id11)"><g clip-path="url(#id12)"><path fill="#f7b9a1" d="M 116.777344 199.320312 C 112.417969 197.222656 109.402344 193.421875 108.847656 189.394531 C 108.757812 188.503906 108.742188 187.652344 108.730469 186.800781 C 108.734375 185.910156 108.722656 185.054688 108.613281 184.207031 C 108.042969 180.40625 104.847656 177.363281 102.15625 175.128906 C 101.8125 174.871094 101.523438 174.589844 101.175781 174.332031 L 101.082031 174.238281 C 98.238281 171.929688 95.300781 169.53125 93.597656 166.125 C 92.421875 163.773438 92.242188 160.820312 93.117188 158.417969 C 93.789062 156.53125 95.019531 155.148438 96.695312 154.402344 C 98.480469 153.617188 100.4375 153.664062 102.179688 153.753906 C 108.613281 154.070312 115.160156 154.351562 121.570312 154.613281 L 122.484375 154.675781 C 132.332031 155.132812 142.539062 155.625 151.957031 159.023438 C 153.484375 159.570312 154.972656 160.191406 156.460938 160.910156 C 165.363281 165.191406 173.59375 172.34375 180.933594 182.21875 C 183.0625 185.125 192.054688 198.710938 193.066406 200.230469 L 193.746094 201.261719 L 192.574219 201.640625 C 189.160156 202.769531 182.191406 200.832031 175.941406 198.859375 C 175.238281 198.660156 174.628906 198.460938 174.132812 198.316406 C 168.742188 196.710938 162.878906 197.75 157.207031 198.6875 C 156.640625 198.792969 156.089844 198.855469 155.5625 198.976562 C 147.621094 200.328125 139.574219 201.113281 131.539062 201.386719 C 127.277344 201.546875 122.347656 201.527344 117.84375 199.738281 C 117.5 199.667969 117.121094 199.484375 116.777344 199.320312 Z M 151.339844 160.796875 C 142.167969 157.46875 132.132812 157.011719 122.398438 156.515625 L 121.5625 156.492188 C 115.167969 156.191406 108.566406 155.929688 102.136719 155.609375 C 100.523438 155.539062 98.851562 155.488281 97.476562 156.097656 C 95.972656 156.785156 95.253906 158.082031 94.871094 159.074219 C 94.179688 161 94.332031 163.421875 95.253906 165.324219 C 96.761719 168.351562 99.527344 170.621094 102.234375 172.816406 L 102.332031 172.910156 C 102.675781 173.171875 103.003906 173.46875 103.308594 173.710938 C 106.269531 176.167969 109.773438 179.542969 110.429688 183.949219 C 110.578125 184.914062 110.59375 185.863281 110.570312 186.789062 C 110.542969 187.625 110.554688 188.382812 110.664062 189.140625 C 111.09375 192.542969 113.722656 195.78125 117.507812 197.601562 C 117.851562 197.765625 118.195312 197.933594 118.519531 198.042969 C 122.675781 199.664062 127.378906 199.671875 131.453125 199.511719 C 139.375 199.28125 147.34375 198.457031 155.171875 197.144531 C 155.683594 197.0625 156.25 196.957031 156.761719 196.875 C 162.660156 195.855469 168.769531 194.796875 174.558594 196.550781 C 175.054688 196.691406 175.664062 196.890625 176.40625 197.109375 C 179.835938 198.195312 186.886719 200.359375 190.636719 200.097656 C 188.34375 196.644531 181.140625 185.796875 179.300781 183.269531 C 172.152344 173.671875 164.175781 166.6875 155.539062 162.535156 C 154.222656 161.949219 152.789062 161.304688 151.339844 160.796875 Z M 151.339844 160.796875 " fill-opacity="1" fill-rule="nonzero"/></g></g></g><g clip-path="url(#id13)"><g clip-path="url(#id14)"><g clip-path="url(#id15)"><path fill="#ff66c4" d="M 120.839844 260.128906 L 120.914062 260.074219 C 141.625 250.851562 155.953125 240.914062 165.984375 228.765625 C 167.769531 226.613281 169.652344 224.652344 171.5 222.765625 C 173.628906 220.59375 175.792969 218.34375 177.746094 215.851562 C 181.515625 210.941406 187.023438 204.1875 191.621094 200.003906 L 191.695312 199.945312 L 192.96875 201.3125 L 192.875 201.40625 C 188.371094 205.492188 182.957031 212.152344 179.222656 216.984375 C 177.214844 219.59375 174.996094 221.863281 172.847656 224.074219 C 171 225.960938 169.136719 227.882812 167.425781 229.972656 C 157.152344 242.335938 142.636719 252.464844 121.644531 261.785156 L 121.566406 261.84375 Z M 120.839844 260.128906 " fill-opacity="1" fill-rule="nonzero"/></g></g></g><g clip-path="url(#id16)"><g clip-path="url(#id17)"><g clip-path="url(#id18)"><path fill="#ff66c4" d="M 192.332031 201.851562 C 191.949219 201.667969 191.625 201.464844 191.28125 201.203125 C 187.054688 197.761719 188.539062 188.414062 189.523438 182.261719 C 189.625 181.558594 189.730469 180.949219 189.816406 180.378906 C 190.15625 177.910156 190.535156 175.460938 190.894531 172.953125 L 190.945312 172.554688 C 191.265625 170.21875 191.628906 167.902344 191.953125 165.566406 C 193.804688 153.007812 195.894531 138.78125 203.886719 127.539062 C 209.878906 119.089844 218.71875 113.230469 226.496094 108.605469 C 228.785156 107.261719 231.042969 105.996094 233.558594 105.652344 C 236.09375 105.273438 238.566406 105.804688 240.980469 106.355469 C 242.808594 106.765625 244.558594 107.136719 246.339844 107.148438 C 248.140625 107.121094 250.070312 106.730469 251.941406 106.359375 C 255.34375 105.644531 258.839844 104.929688 261.820312 106.363281 C 262.390625 106.640625 262.929688 106.992188 263.429688 107.417969 C 267.464844 110.863281 266.304688 116.605469 265.300781 121.625 C 265.175781 122.175781 265.089844 122.746094 264.984375 123.257812 C 263.898438 128.941406 264.261719 135.039062 264.582031 140.925781 C 265.078125 149.769531 265.621094 158.914062 261.214844 166.808594 C 256.34375 175.46875 246.410156 180.28125 239.125 183.785156 L 238.582031 184.039062 C 231.222656 187.597656 223.675781 191.257812 215.792969 193.953125 C 215.398438 194.09375 214.945312 194.25 214.550781 194.390625 C 212.644531 195.023438 210.703125 195.640625 208.914062 196.523438 C 207.671875 197.148438 206.414062 197.90625 205.210938 198.644531 C 203.484375 199.691406 201.738281 200.78125 199.777344 201.53125 C 196.761719 202.617188 194.242188 202.769531 192.332031 201.851562 Z M 261.105469 107.945312 C 258.699219 106.789062 255.617188 107.421875 252.386719 108.078125 C 250.402344 108.488281 248.359375 108.917969 246.425781 108.925781 C 244.453125 108.917969 242.53125 108.511719 240.667969 108.085938 C 238.328125 107.570312 236.121094 107.074219 233.925781 107.429688 C 231.75 107.746094 229.722656 108.839844 227.542969 110.140625 C 219.914062 114.652344 211.285156 120.375 205.457031 128.574219 C 197.722656 139.476562 195.648438 153.472656 193.8125 165.800781 C 193.4375 168.253906 193.09375 170.722656 192.738281 173.226562 L 192.667969 173.664062 C 192.304688 175.984375 191.980469 178.320312 191.621094 180.636719 C 191.535156 181.207031 191.449219 181.871094 191.308594 182.554688 C 190.445312 187.96875 188.996094 197.050781 192.394531 199.765625 C 192.605469 199.914062 192.816406 200.0625 193.082031 200.191406 C 194.496094 200.871094 196.5625 200.6875 199.199219 199.699219 C 200.992188 199.011719 202.605469 198 204.332031 196.949219 C 205.554688 196.175781 206.8125 195.417969 208.167969 194.75 C 210.066406 193.832031 212.085938 193.15625 214.046875 192.5 C 214.046875 192.5 214.933594 192.222656 215.273438 192.105469 C 223.042969 189.445312 230.53125 185.808594 237.832031 182.269531 L 238.378906 182.011719 C 247.503906 177.609375 255.398438 173.320312 259.640625 165.773438 C 263.8125 158.375 263.316406 149.910156 262.78125 140.953125 C 262.417969 134.953125 262.058594 128.761719 263.214844 122.828125 C 263.339844 122.277344 263.40625 121.746094 263.550781 121.15625 C 264.464844 116.613281 265.484375 111.460938 262.332031 108.722656 C 261.945312 108.445312 261.5625 108.167969 261.105469 107.945312 Z M 261.105469 107.945312 " fill-opacity="1" fill-rule="nonzero"/><path fill="#ff66c4" d="M 192.371094 201.773438 C 191.988281 201.589844 191.660156 201.386719 191.316406 201.128906 C 187.148438 197.761719 188.632812 188.414062 189.578125 182.242188 C 189.679688 181.539062 189.785156 180.929688 189.871094 180.359375 C 190.210938 177.890625 190.589844 175.441406 190.949219 172.933594 C 191.289062 170.464844 191.667969 168.015625 192.046875 165.5625 C 193.898438 153.007812 195.988281 138.78125 203.964844 127.574219 C 209.957031 119.125 218.753906 113.25 226.570312 108.640625 C 228.863281 107.296875 231.101562 106.070312 233.632812 105.691406 C 236.128906 105.292969 238.640625 105.84375 241.019531 106.375 C 242.886719 106.800781 244.636719 107.171875 246.378906 107.164062 C 248.179688 107.136719 250.109375 106.75 251.996094 106.339844 C 256.023438 105.503906 260.199219 104.644531 263.445312 107.378906 C 267.484375 110.824219 266.300781 116.511719 265.300781 121.527344 C 265.175781 122.082031 265.089844 122.648438 264.984375 123.164062 C 263.898438 128.847656 264.257812 134.941406 264.578125 140.832031 C 265.078125 149.675781 265.621094 158.820312 261.210938 166.621094 C 256.339844 175.277344 246.425781 180.054688 239.179688 183.574219 L 238.632812 183.828125 C 231.296875 187.351562 223.730469 191.046875 215.867188 193.707031 C 215.46875 193.84375 215.035156 193.964844 214.621094 194.140625 C 212.71875 194.777344 210.753906 195.433594 208.988281 196.273438 C 207.746094 196.898438 206.488281 197.65625 205.285156 198.394531 C 203.558594 199.445312 201.8125 200.53125 199.890625 201.300781 C 196.761719 202.523438 194.242188 202.675781 192.371094 201.773438 Z M 261.140625 107.871094 C 258.695312 106.695312 255.617188 107.328125 252.382812 107.984375 C 250.398438 108.394531 248.414062 108.800781 246.425781 108.832031 C 244.492188 108.84375 242.53125 108.417969 240.667969 107.992188 C 238.328125 107.476562 236.121094 106.980469 233.886719 107.316406 C 231.671875 107.617188 229.679688 108.726562 227.445312 110.046875 C 219.800781 114.597656 211.167969 120.320312 205.363281 128.480469 C 197.628906 139.382812 195.554688 153.382812 193.699219 165.746094 C 193.320312 168.199219 192.980469 170.667969 192.621094 173.171875 C 192.28125 175.640625 191.902344 178.09375 191.523438 180.542969 C 191.4375 181.113281 191.355469 181.777344 191.210938 182.460938 C 190.351562 187.875 188.917969 197.015625 192.339844 199.785156 C 193.757812 200.9375 196.070312 200.921875 199.183594 199.738281 C 200.972656 199.046875 202.585938 198.039062 204.316406 196.988281 C 205.535156 196.210938 206.792969 195.453125 208.148438 194.789062 C 210.046875 193.871094 212.066406 193.195312 214.027344 192.539062 C 214.425781 192.402344 214.859375 192.28125 215.253906 192.140625 C 223.023438 189.484375 230.511719 185.847656 237.8125 182.304688 L 238.359375 182.050781 C 247.484375 177.648438 255.421875 173.378906 259.679688 165.789062 C 263.847656 158.394531 263.335938 149.871094 262.796875 140.917969 C 262.4375 134.914062 262.074219 128.722656 263.214844 122.828125 C 263.339844 122.277344 263.40625 121.746094 263.550781 121.15625 C 264.480469 116.574219 265.519531 111.386719 262.273438 108.648438 C 262 108.332031 261.5625 108.074219 261.140625 107.871094 Z M 261.140625 107.871094 " fill-opacity="1" fill-rule="nonzero"/></g></g></g><g fill="#291b25" fill-opacity="1"><g transform="translate(39.496053, 246.397665)"><g><path d="M 26.222656 18.140625 L 27.121094 18.140625 C 33.40625 17.242188 40.234375 12.394531 44.363281 7.542969 C 55.679688 -4.132812 63.941406 -17.78125 68.972656 -33.226562 C 69.332031 -34.304688 69.691406 -35.382812 70.050781 -36.640625 C 70.230469 -37.71875 70.230469 -39.695312 69.691406 -42.746094 C 69.511719 -42.925781 69.511719 -43.285156 69.332031 -43.644531 C 69.152344 -44.003906 68.792969 -44.363281 68.613281 -44.542969 C 68.433594 -45.082031 68.074219 -45.621094 67.894531 -46.160156 C 67.535156 -46.699219 67.175781 -47.058594 66.996094 -47.597656 C 64.660156 -50.832031 61.785156 -52.625 58.195312 -52.984375 C 57.117188 -53.164062 56.039062 -53.34375 54.960938 -53.34375 C 53.882812 -53.164062 52.804688 -53.164062 51.726562 -53.34375 L 50.652344 -53.34375 C 50.113281 -53.34375 49.753906 -53.523438 49.574219 -53.882812 C 49.394531 -54.421875 49.394531 -54.960938 49.933594 -55.320312 C 50.292969 -55.5 50.652344 -55.859375 50.832031 -56.21875 L 55.5 -60.710938 C 65.558594 -70.765625 73.640625 -82.621094 77.054688 -96.453125 C 77.59375 -98.785156 77.773438 -100.941406 77.234375 -102.917969 C 76.515625 -106.691406 74.179688 -108.484375 70.050781 -108.484375 C 62.863281 -108.484375 54.421875 -101.480469 46.339844 -91.421875 C 42.207031 -86.214844 38.257812 -80.644531 34.484375 -74.359375 C 26.582031 -61.785156 19.757812 -48.675781 14.367188 -37.71875 C 11.675781 -32.152344 9.519531 -27.660156 7.902344 -24.066406 C 7.722656 -23.527344 7.363281 -22.8125 7.183594 -22.273438 C 7.003906 -21.554688 6.285156 -21.015625 5.027344 -20.65625 C 7.003906 -39.515625 10.957031 -57.476562 17.0625 -74.898438 L 22.992188 -93.398438 C 23.351562 -94.296875 23.707031 -95.375 23.886719 -96.273438 C 24.066406 -97.171875 24.246094 -98.25 24.425781 -99.144531 C 24.605469 -100.582031 24.246094 -101.480469 22.992188 -102.019531 C 21.734375 -102.019531 20.835938 -102.199219 20.296875 -100.222656 C 20.117188 -99.683594 19.9375 -98.964844 19.757812 -98.429688 C 19.578125 -97.710938 19.21875 -96.992188 19.039062 -96.453125 C 17.0625 -90.164062 15.265625 -84.238281 13.113281 -77.953125 C 6.824219 -60.53125 2.695312 -42.207031 0.539062 -22.992188 C 0 -18.859375 -0.179688 -14.546875 0.359375 -10.238281 C 0.539062 -8.800781 1.257812 -7.902344 2.515625 -7.542969 C 2.695312 -7.542969 2.695312 -7.542969 2.875 -7.542969 C 3.054688 -7.363281 3.054688 -7.363281 3.234375 -7.363281 C 4.132812 -7.363281 5.027344 -7.902344 5.566406 -8.800781 C 6.464844 -9.699219 7.183594 -10.957031 7.722656 -12.214844 C 8.261719 -13.472656 8.800781 -14.726562 9.339844 -15.984375 C 12.394531 -23.171875 17.421875 -34.125 23.351562 -45.800781 C 26.402344 -51.550781 29.636719 -57.476562 33.046875 -63.402344 C 39.875 -75.4375 47.238281 -85.855469 54.78125 -93.757812 C 58.554688 -97.710938 62.144531 -100.582031 65.917969 -102.378906 C 66.457031 -102.558594 67.175781 -102.917969 67.894531 -103.277344 C 68.433594 -103.636719 69.152344 -103.816406 69.691406 -103.816406 C 70.40625 -103.816406 70.945312 -103.636719 71.484375 -103.277344 C 73.640625 -101.839844 73.101562 -99.503906 72.5625 -97.351562 C 67.355469 -77.234375 53.34375 -64.300781 37.898438 -51.191406 C 37.359375 -50.652344 36.640625 -50.113281 35.921875 -49.574219 C 35.203125 -49.035156 34.484375 -48.316406 33.945312 -47.777344 C 31.613281 -45.441406 31.074219 -43.824219 31.972656 -42.746094 C 32.511719 -42.207031 33.226562 -42.03125 33.765625 -42.03125 C 34.304688 -42.03125 34.84375 -42.207031 35.382812 -42.566406 C 35.742188 -42.746094 36.28125 -43.105469 36.820312 -43.285156 C 37.539062 -43.644531 38.257812 -44.003906 38.976562 -44.542969 C 39.515625 -44.902344 40.234375 -45.261719 40.953125 -45.621094 C 46.160156 -47.957031 50.472656 -48.675781 56.21875 -48.675781 C 59.273438 -48.316406 61.785156 -46.878906 63.582031 -44.363281 C 65.738281 -40.773438 65.378906 -39.15625 61.964844 -36.460938 C 61.425781 -36.101562 61.066406 -35.742188 60.710938 -35.382812 C 60.171875 -35.023438 59.632812 -34.664062 59.09375 -34.484375 C 48.855469 -26.761719 20.296875 -3.953125 18.320312 8.441406 C 17.0625 13.652344 21.195312 18.140625 26.222656 18.140625 Z M 26.402344 13.292969 C 24.246094 13.292969 22.453125 11.675781 22.992188 9.519531 C 23.351562 4.671875 32.511719 -5.027344 38.796875 -11.136719 C 45.082031 -17.0625 55.679688 -26.222656 59.273438 -28.738281 C 59.8125 -28.917969 60.171875 -29.277344 60.710938 -29.816406 C 61.066406 -30.175781 61.605469 -30.355469 62.324219 -30.175781 C 62.863281 -29.277344 62.503906 -28.558594 62.324219 -27.839844 C 55.859375 -14.011719 45.082031 4.132812 31.433594 11.855469 C 29.816406 12.574219 28.378906 13.292969 26.402344 13.292969 Z M 26.402344 13.292969 "/></g></g></g><g fill="#291b25" fill-opacity="1"><g transform="translate(121.217908, 246.397665)"><g><path d="M 5.925781 9.519531 C 9.519531 9.519531 15.265625 3.414062 17.242188 0.359375 C 21.015625 -4.671875 24.964844 -9.878906 28.917969 -15.445312 C 32.691406 -20.835938 36.640625 -26.042969 40.414062 -30.894531 C 41.3125 -32.332031 42.386719 -33.945312 43.105469 -35.382812 C 43.644531 -35.921875 43.824219 -36.640625 43.824219 -37.539062 C 44.003906 -38.4375 43.824219 -39.15625 42.925781 -39.515625 C 42.386719 -39.695312 42.03125 -39.875 41.671875 -39.875 C 40.414062 -39.875 38.796875 -37 38.257812 -36.101562 C 30.355469 -25.144531 21.195312 -12.394531 12.753906 -1.617188 C 11.855469 -0.359375 8.441406 3.953125 6.824219 3.953125 C 5.925781 3.953125 5.386719 3.414062 5.207031 2.515625 C 3.953125 -1.078125 4.3125 -4.847656 4.847656 -8.441406 C 5.746094 -19.578125 8.261719 -39.15625 14.546875 -48.675781 C 22.8125 -61.066406 38.257812 -86.933594 41.492188 -101.300781 C 41.671875 -102.738281 41.492188 -104.175781 39.875 -104.894531 C 39.15625 -105.074219 38.796875 -105.253906 38.617188 -105.253906 C 37.898438 -105.253906 37 -104.894531 36.101562 -104.175781 C 23.707031 -91.78125 13.652344 -64.660156 8.261719 -48.316406 C 7.003906 -44.183594 5.925781 -40.59375 3.234375 -37.179688 C 2.515625 -36.460938 1.976562 -35.382812 2.695312 -34.484375 C 4.3125 -32.511719 3.59375 -30.355469 3.054688 -28.378906 C 1.4375 -20.65625 0.179688 -13.113281 0 -3.953125 C 0 -3.414062 0 -2.515625 0 -1.4375 C 0 -0.359375 0 0.71875 0.179688 1.976562 C 0.71875 4.847656 2.515625 9.519531 5.925781 9.519531 Z M 20.476562 -64.480469 C 19.9375 -65.558594 20.117188 -66.816406 20.65625 -68.253906 C 24.066406 -77.054688 28.199219 -85.316406 33.046875 -93.398438 C 33.765625 -94.296875 34.304688 -94.835938 34.84375 -94.835938 C 35.023438 -94.835938 35.382812 -94.65625 35.921875 -94.476562 C 35.742188 -94.65625 35.742188 -94.835938 35.742188 -95.015625 C 35.742188 -94.835938 35.742188 -94.835938 35.921875 -94.65625 L 35.921875 -94.476562 L 31.074219 -84.777344 C 27.480469 -77.953125 24.066406 -71.125 20.65625 -64.480469 C 20.65625 -64.660156 20.65625 -64.660156 20.65625 -64.660156 C 20.476562 -64.660156 20.476562 -64.660156 20.476562 -64.480469 Z M 20.476562 -64.480469 "/></g></g></g><g fill="#291b25" fill-opacity="1"><g transform="translate(156.061974, 246.397665)"><g><path d="M 7.542969 -8.980469 C 9.160156 -8.980469 10.957031 -9.519531 12.574219 -10.417969 C 14.90625 -12.035156 16.703125 -14.011719 17.960938 -16.703125 C 19.578125 -20.117188 19.9375 -23.527344 19.21875 -26.941406 C 18.679688 -29.996094 18.5 -29.996094 21.914062 -30.535156 C 25.683594 -30.894531 29.097656 -31.792969 32.511719 -33.046875 C 35.742188 -34.304688 39.15625 -35.382812 42.566406 -36.640625 C 44.183594 -37.179688 44.542969 -38.257812 44.003906 -39.515625 C 43.464844 -40.414062 42.566406 -40.953125 41.671875 -40.953125 L 38.796875 -40.234375 C 37.179688 -39.695312 35.5625 -38.976562 33.945312 -38.4375 C 32.332031 -37.898438 30.535156 -37.179688 28.917969 -36.640625 C 25.503906 -35.5625 22.273438 -35.023438 18.859375 -35.023438 L 13.292969 -35.023438 C 12.035156 -34.84375 10.957031 -33.585938 11.496094 -32.332031 C 12.035156 -31.074219 12.574219 -29.996094 13.292969 -28.738281 C 15.984375 -24.605469 15.085938 -20.835938 12.753906 -17.0625 C 11.136719 -14.1875 9.339844 -13.832031 6.464844 -13.832031 C 4.132812 -14.367188 2.875 -16.523438 2.875 -19.9375 C 2.875 -21.914062 3.054688 -23.707031 3.59375 -25.144531 C 4.3125 -28.199219 5.566406 -31.253906 7.183594 -34.304688 C 9.160156 -37.359375 10.777344 -40.414062 14.90625 -41.132812 C 16.164062 -41.3125 16.164062 -42.207031 15.984375 -43.464844 C 15.804688 -44.363281 15.265625 -45.082031 14.011719 -45.261719 C 13.113281 -45.261719 12.394531 -45.082031 11.675781 -44.722656 C 4.671875 -42.03125 -1.257812 -28.558594 -1.796875 -21.195312 C -1.976562 -19.757812 -1.796875 -18.140625 -1.4375 -16.523438 C -0.539062 -11.675781 3.234375 -8.980469 7.542969 -8.980469 Z M 7.542969 -8.980469 "/></g></g></g><g fill="#291b25" fill-opacity="1"><g transform="translate(191.265238, 246.397665)"><g><path d="M 7.542969 -8.980469 C 9.160156 -8.980469 10.957031 -9.519531 12.574219 -10.417969 C 14.90625 -12.035156 16.703125 -14.011719 17.960938 -16.703125 C 19.578125 -20.117188 19.9375 -23.527344 19.21875 -26.941406 C 18.679688 -29.996094 18.5 -29.996094 21.914062 -30.535156 C 25.683594 -30.894531 29.097656 -31.792969 32.511719 -33.046875 C 35.742188 -34.304688 39.15625 -35.382812 42.566406 -36.640625 C 44.183594 -37.179688 44.542969 -38.257812 44.003906 -39.515625 C 43.464844 -40.414062 42.566406 -40.953125 41.671875 -40.953125 L 38.796875 -40.234375 C 37.179688 -39.695312 35.5625 -38.976562 33.945312 -38.4375 C 32.332031 -37.898438 30.535156 -37.179688 28.917969 -36.640625 C 25.503906 -35.5625 22.273438 -35.023438 18.859375 -35.023438 L 13.292969 -35.023438 C 12.035156 -34.84375 10.957031 -33.585938 11.496094 -32.332031 C 12.035156 -31.074219 12.574219 -29.996094 13.292969 -28.738281 C 15.984375 -24.605469 15.085938 -20.835938 12.753906 -17.0625 C 11.136719 -14.1875 9.339844 -13.832031 6.464844 -13.832031 C 4.132812 -14.367188 2.875 -16.523438 2.875 -19.9375 C 2.875 -21.914062 3.054688 -23.707031 3.59375 -25.144531 C 4.3125 -28.199219 5.566406 -31.253906 7.183594 -34.304688 C 9.160156 -37.359375 10.777344 -40.414062 14.90625 -41.132812 C 16.164062 -41.3125 16.164062 -42.207031 15.984375 -43.464844 C 15.804688 -44.363281 15.265625 -45.082031 14.011719 -45.261719 C 13.113281 -45.261719 12.394531 -45.082031 11.675781 -44.722656 C 4.671875 -42.03125 -1.257812 -28.558594 -1.796875 -21.195312 C -1.976562 -19.757812 -1.796875 -18.140625 -1.4375 -16.523438 C -0.539062 -11.675781 3.234375 -8.980469 7.542969 -8.980469 Z M 7.542969 -8.980469 "/></g></g></g><g fill="#291b25" fill-opacity="1"><g transform="translate(226.468501, 246.397665)"><g><path d="M 1.078125 -1.796875 C 1.976562 -1.796875 2.695312 -2.15625 3.414062 -2.875 C 5.386719 -4.492188 6.105469 -6.464844 7.363281 -8.621094 C 10.238281 -13.652344 13.113281 -18.859375 15.984375 -24.066406 C 18.320312 -28.199219 20.835938 -32.152344 23.886719 -35.742188 C 24.425781 -36.28125 24.785156 -37 25.324219 -37.898438 C 25.863281 -38.617188 26.402344 -38.796875 27.121094 -38.617188 C 28.019531 -38.4375 28.558594 -37.71875 28.378906 -36.820312 C 28.199219 -35.921875 28.019531 -35.023438 28.019531 -34.304688 C 28.019531 -31.613281 27.839844 -28.917969 27.660156 -26.222656 C 27.660156 -23.351562 27.660156 -20.835938 28.917969 -18.140625 C 29.816406 -16.882812 30.714844 -16.34375 31.972656 -16.34375 C 32.152344 -16.34375 32.691406 -16.523438 33.40625 -16.703125 C 34.664062 -17.242188 35.921875 -18.140625 36.820312 -19.039062 C 37.71875 -19.9375 38.796875 -21.015625 39.695312 -21.914062 C 40.953125 -23.171875 42.386719 -24.605469 43.644531 -25.863281 C 44.902344 -27.121094 46.339844 -28.378906 47.957031 -29.277344 C 48.855469 -28.738281 49.574219 -27.839844 49.933594 -26.941406 C 50.113281 -26.042969 50.652344 -25.144531 51.191406 -24.246094 C 53.164062 -21.195312 55.679688 -19.757812 58.734375 -19.757812 C 60.171875 -19.757812 61.605469 -19.9375 62.863281 -20.476562 C 65.378906 -21.734375 67.535156 -22.992188 69.332031 -24.425781 L 80.105469 -33.585938 C 81.003906 -34.304688 81.902344 -35.203125 82.621094 -36.101562 C 83.878906 -37.359375 83.878906 -38.4375 82.800781 -39.515625 C 82.441406 -40.054688 81.902344 -40.414062 81.183594 -40.414062 C 80.644531 -40.414062 80.105469 -40.054688 79.210938 -39.515625 C 79.03125 -38.976562 78.671875 -38.796875 78.492188 -38.617188 C 74.71875 -35.203125 70.585938 -31.613281 66.457031 -28.199219 C 64.839844 -26.941406 61.066406 -24.425781 58.734375 -24.425781 C 57.65625 -24.425781 56.578125 -24.964844 55.679688 -26.042969 C 54.960938 -26.941406 54.421875 -27.839844 53.882812 -29.097656 C 53.703125 -29.636719 53.523438 -30.175781 53.34375 -30.714844 C 53.164062 -31.253906 52.804688 -31.792969 52.445312 -32.332031 C 51.726562 -33.945312 50.472656 -34.664062 48.855469 -34.664062 C 48.675781 -34.664062 47.957031 -34.484375 47.058594 -34.304688 C 45.980469 -33.765625 44.902344 -33.046875 43.644531 -32.152344 C 42.746094 -31.253906 41.671875 -30.175781 40.773438 -29.277344 C 39.695312 -28.378906 38.617188 -27.300781 37.71875 -26.402344 L 34.304688 -23.171875 C 34.125 -23.171875 34.125 -23.171875 33.945312 -22.992188 C 33.046875 -22.992188 32.511719 -23.351562 32.511719 -24.066406 C 32.511719 -24.605469 32.511719 -25.324219 32.511719 -26.042969 C 32.332031 -26.761719 32.332031 -27.480469 32.332031 -28.199219 C 32.511719 -29.636719 32.511719 -31.074219 32.691406 -32.511719 C 32.867188 -33.945312 32.867188 -35.382812 32.867188 -37 C 33.046875 -39.15625 33.046875 -41.3125 32.152344 -43.285156 C 31.613281 -44.902344 30.535156 -45.800781 28.917969 -45.800781 C 28.378906 -45.800781 27.660156 -45.621094 26.941406 -45.261719 C 22.09375 -41.851562 18.140625 -36.460938 15.085938 -31.613281 C 13.472656 -29.097656 12.035156 -26.582031 10.597656 -24.066406 C 9.160156 -21.375 7.722656 -18.859375 6.285156 -16.34375 C 6.105469 -16.164062 5.925781 -15.804688 5.746094 -15.445312 C 5.566406 -15.085938 5.386719 -14.90625 4.847656 -14.90625 C 4.492188 -14.90625 4.132812 -14.90625 3.953125 -15.085938 C 4.132812 -15.445312 4.132812 -15.804688 4.132812 -16.164062 C 3.953125 -16.523438 3.953125 -16.882812 4.132812 -17.421875 C 7.183594 -31.792969 11.316406 -46.160156 17.601562 -59.273438 C 17.960938 -60.171875 18.320312 -60.890625 18.859375 -61.785156 C 19.21875 -62.503906 19.21875 -63.402344 19.039062 -64.300781 C 18.859375 -64.839844 17.960938 -65.738281 17.421875 -65.738281 C 17.242188 -65.738281 16.882812 -65.558594 16.34375 -65.378906 C 12.394531 -63.402344 4.492188 -37.539062 3.054688 -32.867188 C 0.359375 -23.707031 -1.796875 -14.1875 -1.796875 -4.671875 C -1.796875 -3.234375 -1.078125 -2.335938 0.179688 -1.976562 C 0.359375 -1.796875 0.71875 -1.796875 1.078125 -1.796875 Z M 1.078125 -1.796875 "/></g></g></g></svg>